<svg width="50" height="52" viewBox="0 0 50 52" fill="none" xmlns="http://www.w3.org/2000/svg">
<rect width="50" height="52" rx="9" fill="white"/>
<path d="M8.11697 4.06326C8.24828 3.96225 8.43586 3.98666 8.53689 4.11794L18.5369 17.1179C18.6379 17.2493 18.6135 17.4368 18.4822 17.5379C18.3509 17.6389 18.1633 17.6145 18.0623 17.4832L8.06228 4.48318C7.96127 4.35187 7.98568 4.16429 8.11697 4.06326Z" fill="black"/>
<path d="M8.95316 4.30078C8.95316 4.1351 9.08728 4.00098 9.25296 4.00098C9.41863 4.00099 9.55277 4.13511 9.55277 4.30078C9.55277 6.43044 9.55293 8.50776 9.48636 10.0352V10.0459C9.28915 12.5366 8.90175 14.4563 8.74027 19.2725V19.2852C8.62626 20.8131 8.53359 22.366 8.66312 23.7891C8.79272 25.2127 9.14231 26.4736 9.88675 27.4365C12.1128 30.3154 14.1101 33.3839 15.2881 35.251C15.9236 36.2582 16.7388 37.7205 17.5166 38.7881C17.9079 39.325 18.26 39.7187 18.544 39.9014C18.6847 39.9918 18.7701 40.0049 18.8125 40C18.8391 39.9969 18.8935 39.9823 18.9659 39.8672C18.9681 39.8616 18.9845 39.8188 18.9932 39.6816C19.0025 39.534 19.0018 39.3196 18.9922 39.001C18.9734 38.3744 18.9235 37.359 18.8848 35.7725C18.8195 33.0964 18.7548 28.3916 18.7227 25.0059C18.6905 21.6189 18.6914 19.6107 18.6914 17.6035C18.6914 17.4378 18.8256 17.3037 18.9912 17.3037C19.1568 17.3039 19.291 17.4379 19.291 17.6035C19.291 19.61 19.2912 21.6159 19.3233 25C19.3554 28.385 19.4192 33.0862 19.4844 35.7578C19.5232 37.3481 19.5724 38.3364 19.5918 38.9824C19.6014 39.2998 19.6041 39.5399 19.5928 39.7188C19.5821 39.8879 19.5568 40.0542 19.4737 40.1865C19.3335 40.4096 19.1364 40.5663 18.8809 40.5957C18.6414 40.6232 18.4142 40.5303 18.2198 40.4053C17.8333 40.1568 17.4248 39.6806 17.0313 39.1406C16.2395 38.0539 15.3864 36.5319 14.7803 35.5713C13.6059 33.7099 11.6208 30.6602 9.41214 27.8037C8.56862 26.7128 8.20005 25.322 8.06546 23.8438C7.93084 22.365 8.02778 20.7661 8.14164 19.2402C8.30346 14.43 8.69332 12.4311 8.88578 10.0088C8.95164 8.49747 8.95316 6.43559 8.95316 4.30078Z" fill="black"/>
<path d="M12.2998 4.00098C12.4655 4.00098 12.5996 4.1351 12.5996 4.30078C12.5996 4.46647 12.4655 4.60059 12.2998 4.60059H9.2998C9.13412 4.60059 9 4.46647 9 4.30078C9 4.1351 9.13412 4.00098 9.2998 4.00098H12.2998Z" fill="black"/>
<path d="M11.189 4.02104C11.3431 3.96016 11.5178 4.0359 11.5787 4.18999C11.7243 4.55846 11.9149 4.99686 12.1314 5.47905C12.1421 5.43433 12.152 5.38907 12.1656 5.34428L12.2017 5.25346C12.2469 5.16684 12.3171 5.09406 12.4117 5.04936C12.5301 4.99339 12.6527 4.99736 12.7496 5.02202C12.9382 5.07008 13.1099 5.21347 13.2017 5.39995C13.2978 5.59505 13.4556 5.81291 13.6656 6.08452C13.8701 6.34909 14.1188 6.65878 14.3638 7.01225C14.7943 7.63352 15.6994 9.2704 16.2847 10.7046C16.3981 10.9824 16.501 11.2587 16.5874 11.522C17.6439 12.7011 18.5798 13.4359 19.3765 14.2398C19.926 14.7943 20.161 15.6128 20.3462 16.2046C20.4133 16.419 20.4353 16.6576 20.3746 16.8746C20.9048 16.8608 21.5929 16.8479 22.4839 16.8394C25.9412 16.8064 32.528 16.8064 35.7007 16.8384C35.7085 16.8385 35.7164 16.8383 35.7242 16.8384C35.777 16.812 35.8381 16.801 35.9009 16.8101C35.9766 16.8211 36.0469 16.8345 36.1128 16.8453C37.4043 16.861 38.0015 16.8813 38.229 16.9048C38.2618 16.9082 38.2932 16.9123 38.3208 16.9175C38.3345 16.9201 38.3515 16.9239 38.3697 16.9292C38.3832 16.9332 38.4189 16.9435 38.4566 16.9673C38.4764 16.9799 38.6189 17.0738 38.5972 17.2603C38.5875 17.3435 38.547 17.4009 38.5191 17.4312C38.4916 17.461 38.4636 17.4785 38.4478 17.4878C38.3967 17.5179 38.343 17.5295 38.3326 17.5318C38.2574 17.5482 38.1286 17.5592 38.0308 17.5669C37.5994 17.601 37.201 17.6011 36.857 17.5669C36.6839 17.5497 36.53 17.5241 36.3687 17.4957C36.2726 17.4787 36.1729 17.4634 36.0621 17.4449C35.9455 17.4435 35.8232 17.4403 35.6949 17.439C32.5264 17.407 25.9434 17.407 22.4898 17.44C21.171 17.4526 20.3022 17.4764 19.7349 17.4976C19.5855 17.5519 19.4345 17.5794 19.3003 17.5914C19.0186 17.6165 18.7623 17.5826 18.6451 17.566C18.6355 17.5646 18.618 17.5616 18.5972 17.5552C18.5831 17.5509 18.5334 17.5349 18.4849 17.4917C18.4578 17.4676 18.422 17.4271 18.4009 17.3667C18.3784 17.3022 18.3805 17.2361 18.398 17.1792C18.4278 17.0828 18.4949 17.0334 18.5093 17.023C18.5498 16.9938 18.5891 16.9818 18.5943 16.98C18.6079 16.9755 18.6202 16.9732 18.6285 16.9712C18.6591 16.9641 18.6985 16.9578 18.7427 16.9527C18.8363 16.9418 18.9963 16.9284 19.2603 16.9146C19.3575 16.9095 19.4696 16.9071 19.5982 16.9019C19.6569 16.8733 19.71 16.8413 19.7515 16.7984C19.8006 16.7472 19.8477 16.619 19.774 16.3833C19.5754 15.7489 19.3755 15.0923 18.9498 14.6626C18.3827 14.0905 17.6451 13.472 16.8374 12.6597C16.8497 12.8952 16.8244 13.1537 16.6734 13.3443C16.4869 13.5796 16.2019 13.612 15.9292 13.5484C15.8054 13.5195 15.7109 13.438 15.6539 13.3824C15.589 13.319 15.5259 13.242 15.4693 13.1656C15.3574 13.0145 15.238 12.8232 15.1402 12.6753C14.743 12.0749 13.9338 10.5675 13.1197 8.94389C12.3035 7.31602 11.4684 5.54511 11.0201 4.41069C10.9592 4.2566 11.0349 4.08193 11.189 4.02104ZM14.2671 9.8726C14.8486 10.9934 15.361 11.9221 15.6402 12.3443C15.75 12.5104 15.8524 12.6742 15.9517 12.8082C16.0006 12.8742 16.0411 12.9227 16.0728 12.9537C16.0789 12.9596 16.0844 12.9638 16.0884 12.9673C16.1505 12.9795 16.1836 12.9772 16.1968 12.9742L16.2037 12.9722C16.2166 12.9559 16.2535 12.8756 16.2388 12.6636C16.2233 12.4403 16.1554 12.1523 16.0513 11.8199C15.9789 11.7379 15.9035 11.6565 15.8306 11.5708C15.4444 11.1172 14.9917 10.6481 14.5289 10.1568C14.441 10.0635 14.3551 9.96723 14.2671 9.8726ZM12.6929 5.71928C12.5526 6.51057 12.9619 7.35921 13.6763 8.27885C14.0571 8.76898 14.5067 9.2578 14.9654 9.74468C15.1178 9.90648 15.2713 10.0695 15.4234 10.231C14.8776 9.03386 14.2061 7.83828 13.8707 7.35405C13.6373 7.01739 13.4036 6.72672 13.191 6.45171C12.9989 6.20323 12.8191 5.95841 12.6929 5.71928Z" fill="black"/>
<path d="M37.65 17.3008C37.65 17.1351 37.7841 17.001 37.9498 17.001C38.1155 17.001 38.2496 17.1351 38.2496 17.3008C38.2496 24.2728 38.3717 25.7991 38.4654 30.6279C38.506 32.7138 38.8072 35.8534 38.3453 39.8184C38.2806 40.3743 38.0518 40.7861 37.6686 41.0664C37.3002 41.3358 36.8186 41.4614 36.2887 41.5234C35.7558 41.5858 35.1349 41.5878 34.4645 41.5811C33.7879 41.5743 33.054 41.5583 32.2731 41.582L32.2672 41.583C29.4174 41.6157 24.0265 41.6155 21.2135 41.4883C19.8145 41.425 19.0637 41.3289 18.65 41.2051C18.4414 41.1426 18.2814 41.0628 18.1705 40.9443C18.053 40.8186 18.0231 40.682 18.0074 40.6172C17.9686 40.4561 18.068 40.2937 18.2291 40.2549C18.3902 40.2161 18.5526 40.3155 18.5914 40.4766C18.6 40.512 18.6029 40.5226 18.6061 40.5303C18.6072 40.533 18.6071 40.5333 18.608 40.5342C18.614 40.5405 18.657 40.5815 18.8219 40.6309C19.1556 40.7308 19.8371 40.8252 21.2408 40.8887C24.0338 41.015 29.4051 41.015 32.2555 40.9824L32.8434 40.9717C33.4217 40.9662 33.9692 40.9764 34.4703 40.9814C35.1443 40.9882 35.7294 40.9851 36.2193 40.9277C36.7122 40.87 37.071 40.7605 37.3151 40.582C37.5442 40.4143 37.7013 40.1641 37.7496 39.749C38.2052 35.8378 37.9073 32.7724 37.8658 30.6396C37.7723 25.8243 37.65 24.2801 37.65 17.3008Z" fill="black"/>
<path d="M17.4396 16.0111C17.5996 16.0538 17.695 16.2183 17.6525 16.3783C17.5812 16.6456 17.5997 16.7526 17.6115 16.7856C17.6159 16.798 17.6192 16.8107 17.6857 16.8451C17.8293 16.9194 18.0002 16.961 18.1203 16.9828C18.1783 16.9934 18.2141 16.9975 18.2374 16.9994C18.2598 17.0013 18.2752 17.0014 18.2999 17.0014C18.4656 17.0014 18.5998 17.1355 18.5998 17.3012C18.5998 17.4669 18.4656 17.601 18.2999 17.601C18.2334 17.601 18.1637 17.5999 18.0138 17.5727C17.8745 17.5473 17.6328 17.4939 17.4093 17.3783C17.2926 17.3179 17.1265 17.2121 17.046 16.9867C16.973 16.7817 16.9906 16.5308 17.0724 16.224C17.1151 16.064 17.2795 15.9685 17.4396 16.0111Z" fill="black"/>
<path d="M16.3547 15.0051C16.4161 15.0132 16.4901 15.0359 16.5578 15.0891C16.6107 15.1306 16.6492 15.1822 16.6741 15.2385L16.6946 15.2961L16.7229 15.4338C16.7457 15.5819 16.7549 15.7583 16.7658 15.9153C16.781 16.1328 16.8005 16.3576 16.8469 16.5676C16.884 16.6235 16.9181 16.6807 16.9485 16.7317C17.0917 16.9718 17.2187 17.1838 17.383 17.299C17.4267 17.3131 17.4737 17.3267 17.5266 17.3342C17.5204 17.0031 17.5168 16.7087 17.5168 16.4602C17.5168 16.2945 17.6509 16.1604 17.8166 16.1604C17.9823 16.1605 18.1164 16.2945 18.1164 16.4602C18.1164 16.6858 18.119 16.9498 18.1242 17.2453C18.1939 17.2206 18.2675 17.1932 18.345 17.1623C18.4778 17.1094 18.6263 17.0479 18.7698 17.0031C18.9136 16.9583 19.0764 16.9218 19.2424 16.9289L19.3264 16.9446C19.359 16.955 19.3954 16.9717 19.4299 17.0002C19.5054 17.0626 19.5351 17.1458 19.5412 17.2121C19.5506 17.3157 19.5055 17.3947 19.4944 17.4143C19.4594 17.476 19.4074 17.532 19.3616 17.5744C19.2638 17.665 19.1151 17.7675 18.9387 17.8313C18.6969 17.9186 18.421 17.9927 18.1408 18.0227C18.1411 18.0337 18.1415 18.0448 18.1418 18.0559C18.4786 18.041 18.8488 17.9973 19.2229 17.8977C19.3829 17.8551 19.5474 17.9505 19.5901 18.1106C19.6327 18.2706 19.5373 18.4351 19.3772 18.4778C18.9513 18.5912 18.5343 18.6394 18.1604 18.6555C18.21 20.3579 18.2931 22.5252 18.3635 24.5002C18.4686 27.4486 18.4009 31.5636 18.2932 33.2688C18.174 35.1552 17.9756 37.3528 17.7219 38.4992C17.6577 38.7894 17.6958 39.1692 17.803 39.3928C17.8802 39.5538 18.0455 39.6693 18.2512 39.761C18.3514 39.8056 18.4454 39.838 18.5344 39.8703C18.5754 39.8852 18.622 39.9026 18.6623 39.9211C18.687 39.9324 18.7717 39.9702 18.8313 40.0471C18.8627 40.0877 18.9174 40.1771 18.9006 40.2981C18.8828 40.4251 18.7996 40.4976 18.7492 40.5295C18.6642 40.5834 18.5653 40.5931 18.5207 40.5969C18.4033 40.6068 18.247 40.5974 18.0901 40.5793C17.7725 40.5428 17.364 40.4608 17.0823 40.3537C16.8632 40.2704 16.7159 40.0755 16.6116 39.8733C16.5032 39.6632 16.4147 39.3927 16.3401 39.0783C16.1905 38.4478 16.0834 37.5842 16.0051 36.5412C15.8483 34.4521 15.8038 31.5891 15.7864 28.3117C15.7639 24.1044 15.7529 20.3021 15.8332 18.0139C15.6122 17.843 15.4051 17.6434 15.216 17.4133L15.1985 17.3918L15.1848 17.3664C14.9656 16.9633 14.9687 16.566 15.0539 16.2239C15.1382 15.8859 15.3063 15.576 15.5715 15.3381C15.7029 15.2204 15.8817 15.1068 16.0491 15.0471C16.1288 15.0186 16.2402 14.9901 16.3547 15.0051ZM16.4201 18.3772C16.3527 20.674 16.3646 24.2964 16.386 28.3078C16.4035 31.5876 16.4488 34.431 16.6037 36.4963C16.6813 37.5305 16.7856 38.3562 16.9241 38.9397C16.9934 39.2321 17.0683 39.4496 17.1448 39.5979C17.2253 39.7539 17.2843 39.7887 17.2961 39.7932C17.3156 39.8006 17.3371 39.8055 17.3586 39.8127C17.3234 39.763 17.2899 39.7098 17.2619 39.6516C17.0895 39.2917 17.0467 38.7737 17.136 38.3703C17.3781 37.2765 17.574 35.1235 17.6936 33.2307C17.7999 31.5475 17.8684 27.4527 17.7639 24.5217C17.6935 22.5476 17.6095 20.3671 17.5598 18.6535C17.4924 18.6507 17.4277 18.6507 17.3664 18.6467L17.3489 18.6447C17.0163 18.6034 16.7073 18.5122 16.4201 18.3772ZM16.4553 17.4436C16.4511 17.5291 16.4484 17.6177 16.4446 17.7092C16.7421 17.8898 17.0658 18.0037 17.4201 18.0481C17.4596 18.0506 17.5004 18.051 17.5422 18.053C17.5418 18.036 17.5417 18.019 17.5412 18.0022C17.4018 17.973 17.2648 17.9246 17.135 17.8498C16.9481 17.7793 16.7911 17.6735 16.6633 17.5364C16.5865 17.4539 16.5222 17.3633 16.469 17.2688C16.4645 17.3234 16.4583 17.3818 16.4553 17.4436ZM16.1448 15.6623C16.0848 15.696 16.0227 15.7399 15.9719 15.7854C15.8091 15.9314 15.6958 16.1285 15.636 16.3684C15.5793 16.5956 15.5822 16.8229 15.6994 17.0539C15.7552 17.1207 15.8112 17.185 15.8694 17.2453C15.8844 17.0496 15.9053 16.8817 15.9338 16.7492C15.9517 16.666 15.9738 16.5877 16.0012 16.5217C16.0149 16.4888 16.0332 16.4511 16.0578 16.4153C16.0797 16.3833 16.1225 16.3283 16.1946 16.2912L16.1955 16.2903C16.1825 16.1727 16.1744 16.0599 16.1672 15.9572C16.159 15.8394 16.1517 15.7419 16.1448 15.6623Z" fill="black"/>
<path d="M15.1716 36.3008C15.1716 36.1351 15.3058 36.001 15.4714 36.001C15.6371 36.001 15.7712 36.1351 15.7712 36.3008C15.7712 36.7564 15.7736 37.205 15.7761 37.6299C15.7944 37.6264 15.8134 37.625 15.8328 37.625C15.9984 37.625 16.1326 37.7591 16.1326 37.9248C16.1326 38.4782 16.1597 38.9545 16.2175 39.3516C16.2617 39.4784 16.3058 39.5901 16.3474 39.6807C16.393 39.7799 16.4274 39.8335 16.446 39.8545C16.539 39.9588 16.7381 40.0301 17.0867 40.0703C17.2512 40.0893 17.4256 40.099 17.6111 40.1113C17.792 40.1233 17.983 40.1378 18.1628 40.165C18.2041 40.1713 18.2763 40.1869 18.3435 40.2383C18.4268 40.302 18.4787 40.4024 18.4744 40.5146C18.4707 40.6048 18.4322 40.6725 18.4099 40.7061C18.3846 40.744 18.3543 40.7752 18.3288 40.7998C18.3197 40.8086 18.3087 40.8163 18.2986 40.8252C18.3048 40.8255 18.3271 40.8269 18.3503 40.8311C18.3567 40.8322 18.376 40.8355 18.3992 40.8438C18.4103 40.8477 18.4339 40.8569 18.4607 40.874C18.4816 40.8874 18.5448 40.931 18.5788 41.0186C18.6226 41.1313 18.59 41.2369 18.5437 41.3018C18.5067 41.3533 18.4631 41.3801 18.448 41.3887C18.4145 41.4078 18.3844 41.4152 18.3777 41.417C18.3481 41.4251 18.3184 41.4285 18.3162 41.4287C18.3048 41.4299 18.2914 41.4306 18.2781 41.4316C18.2509 41.4337 18.2138 41.4357 18.1667 41.4385C17.9677 41.4501 17.7251 41.4483 17.4724 41.4209C17.3913 41.4202 17.3077 41.4194 17.2234 41.418C17.0819 41.4758 16.9451 41.528 16.823 41.5625C16.401 41.6815 15.9894 41.5126 15.7204 41.2578C15.6637 41.2041 15.6158 41.1431 15.571 41.0771C15.4594 40.975 15.3688 40.8525 15.2976 40.7197C15.1504 40.445 15.0752 40.1149 15.0369 39.791C14.9602 39.1436 15.0223 38.4249 15.0515 38.0107C15.0556 37.9525 15.0616 37.8949 15.073 37.8447C15.0787 37.8198 15.0882 37.7874 15.1033 37.7539C15.1137 37.7307 15.1359 37.6881 15.1775 37.6475C15.1748 37.2136 15.1716 36.7584 15.1716 36.3008ZM16.8572 40.6416C16.9598 40.6953 17.078 40.7381 17.2097 40.7705C17.2644 40.7454 17.3193 40.7199 17.3728 40.6934C17.255 40.6852 17.1345 40.6794 17.0183 40.666C16.9658 40.66 16.9121 40.6502 16.8572 40.6416Z" fill="black"/>
<path d="M15 38.3008V16.3008C15 16.1351 15.1341 16.001 15.2998 16.001C15.4655 16.001 15.5996 16.1351 15.5996 16.3008V38.3008C15.5996 38.4665 15.4655 38.6006 15.2998 38.6006C15.1341 38.6006 15 38.4665 15 38.3008Z" fill="black"/>
<path d="M24.1293 14.0654C25.3144 13.9375 26.1935 14.0197 26.8412 14.1415C27.1634 14.2021 27.4264 14.272 27.6332 14.3271C27.8518 14.3853 27.9781 14.4182 28.0648 14.4247C28.7003 14.4724 29.2167 14.6144 29.8803 14.7284C30.9795 14.9173 32.167 15.0614 33.7397 15.1464C35.5138 15.2423 36.7671 15.1816 37.0434 15.1484L37.0531 15.1474L37.0639 15.1464C37.7423 15.112 38.1324 14.9794 38.64 14.8652L38.6615 14.8603L38.683 14.8583C38.8585 14.845 39.0848 14.8456 39.3002 14.8456C39.4659 14.8456 39.6 14.9797 39.6 15.1454C39.5999 15.311 39.4658 15.4452 39.3002 15.4452C39.0848 15.4452 38.8913 15.446 38.7455 15.456C38.292 15.5597 37.8261 15.7089 37.0941 15.746L37.0932 15.745C36.7361 15.784 35.4612 15.8408 33.7074 15.746C32.1125 15.6599 30.9018 15.5132 29.7787 15.3202C29.0425 15.1938 28.6207 15.0684 28.0199 15.0234C27.8638 15.0116 27.6723 14.9587 27.4789 14.9072C27.2731 14.8523 27.0284 14.7875 26.7299 14.7314C26.1357 14.6197 25.3163 14.5399 24.1938 14.6611C23.4386 14.7426 22.8441 14.8646 21.8275 15.3017C21.3899 15.4899 21.0431 15.7787 20.5443 16.4755C20.4479 16.6102 20.2601 16.6413 20.1254 16.5448C19.9907 16.4484 19.9596 16.2606 20.0561 16.1259C20.59 15.3799 21.0152 14.9972 21.5902 14.7499C22.6656 14.2875 23.319 14.1528 24.1293 14.0654Z" fill="black"/>
<path d="M39.3302 16.001C39.5266 16.001 39.7397 16.0007 39.9454 16.0254C40.048 16.0377 40.1518 16.0563 40.2393 16.0801C40.2826 16.0918 40.3295 16.1061 40.3722 16.125C40.4036 16.1389 40.478 16.1738 40.5343 16.2441L40.7335 16.4932L40.4727 16.6768C40.1325 16.9169 39.563 17.2482 38.3829 17.5889C38.2238 17.6347 38.0577 17.5429 38.0118 17.3838C37.9659 17.2246 38.0577 17.0586 38.2169 17.0127C38.7119 16.8698 39.0862 16.7282 39.3751 16.6006C39.3604 16.6006 39.3451 16.6006 39.3302 16.6006C39.1647 16.6003 39.0304 16.4663 39.0304 16.3008C39.0304 16.1353 39.1647 16.0012 39.3302 16.001Z" fill="black"/>
<path d="M40 38.3008V16.3008C40 16.1351 40.1341 16.001 40.2998 16.001C40.4655 16.001 40.5996 16.1351 40.5996 16.3008V38.3008C40.5996 38.4665 40.4655 38.6006 40.2998 38.6006C40.1341 38.6006 40 38.4665 40 38.3008Z" fill="black"/>
<path d="M40.1094 38.0693C40.2373 37.9641 40.4259 37.9824 40.5312 38.1103C40.6365 38.2382 40.6181 38.4269 40.4902 38.5322C40.2998 38.689 40.1169 38.8395 39.9902 38.9531C39.8692 39.0616 39.8096 39.1281 39.748 39.2041C39.682 39.2855 39.6158 39.3762 39.542 39.4775C39.4444 39.6112 39.2569 39.6404 39.123 39.5429C38.9893 39.4453 38.9601 39.2578 39.0576 39.124C39.1295 39.0254 39.2047 38.9217 39.2822 38.8261C39.3642 38.725 39.4459 38.6359 39.5898 38.5068C39.7281 38.3828 39.9227 38.223 40.1094 38.0693Z" fill="black"/>
<path d="M40.2998 39.001C40.4655 39.001 40.5996 39.1351 40.5996 39.3008C40.5996 39.4665 40.4655 39.6006 40.2998 39.6006H38.2998C38.1341 39.6006 38 39.4665 38 39.3008C38 39.1351 38.1341 39.001 38.2998 39.001H40.2998Z" fill="black"/>
</svg>
