<svg width="553" height="182" viewBox="0 0 553 182" fill="none" xmlns="http://www.w3.org/2000/svg">
<g clip-path="url(#clip0_329_418)">
<path d="M255.096 96.0938C255.096 94.4563 252.746 93.1289 249.846 93.1289C246.947 93.1289 244.596 94.4563 244.596 96.0938V168.012C244.596 169.649 246.947 170.977 249.846 170.977C252.746 170.977 255.096 169.649 255.096 168.012V96.0938Z" fill="#E9E4F6" stroke="black" stroke-width="0.1"/>
<path d="M217 114.822C217 111.607 214.314 109 211 109C207.686 109 205 111.607 205 114.822V165.178C205 168.393 207.686 171 211 171C214.314 171 217 168.393 217 165.178V114.822Z" fill="#E9E4F6"/>
<path d="M294.269 68.3451C294.269 66.7916 292.039 65.5322 289.288 65.5322C286.538 65.5322 284.308 66.7916 284.308 68.3451V179.187C284.308 180.741 286.538 182 289.288 182C292.039 182 294.269 180.741 294.269 179.187V68.3451Z" fill="#F5F5F5"/>
<path d="M294.269 68.3451C294.269 66.7916 292.039 65.5322 289.288 65.5322C286.538 65.5322 284.308 66.7916 284.308 68.3451V179.187C284.308 180.741 286.538 182 289.288 182C292.039 182 294.269 180.741 294.269 179.187V68.3451Z" stroke="black" stroke-width="0.1"/>
<path d="M217.135 97.9939C217.135 96.8183 215.447 95.8652 213.365 95.8652C211.284 95.8652 209.596 96.8183 209.596 97.9939V116.696C209.596 117.871 211.284 118.824 213.365 118.824C215.447 118.824 217.135 117.871 217.135 116.696V97.9939Z" fill="#E6E0F5" fill-opacity="0.86" stroke="black" stroke-width="0.1"/>
<path d="M349.481 10H344.519C340.366 10 337 13.3996 337 17.5931V108.407C337 112.6 340.366 116 344.519 116H349.481C353.634 116 357 112.6 357 108.407V17.5931C357 13.3996 353.634 10 349.481 10Z" fill="#FFFFE8" fill-opacity="0.72"/>
<path d="M347.609 10H343.391C339.861 10 337 13.3996 337 17.5931V108.407C337 112.6 339.861 116 343.391 116H347.609C351.139 116 354 112.6 354 108.407V17.5931C354 13.3996 351.139 10 347.609 10Z" stroke="black" stroke-width="0.1"/>
<path d="M321.462 88.5676C321.462 86.4263 318.388 84.6904 314.596 84.6904C310.805 84.6904 307.731 86.4263 307.731 88.5676V166.568C307.731 168.709 310.805 170.445 314.596 170.445C318.388 170.445 321.462 168.709 321.462 166.568V88.5676Z" fill="#FFFFEE"/>
<path d="M321.462 88.5676C321.462 86.4263 318.388 84.6904 314.596 84.6904C310.805 84.6904 307.731 86.4263 307.731 88.5676V166.568C307.731 168.709 310.805 170.445 314.596 170.445C318.388 170.445 321.462 168.709 321.462 166.568V88.5676Z" stroke="black" stroke-width="0.1"/>
<path d="M142.423 42.1926C142.423 40.0513 139.349 38.3154 135.558 38.3154C131.766 38.3154 128.692 40.0513 128.692 42.1926V136.31C128.692 138.451 131.766 140.187 135.558 140.187C139.349 140.187 142.423 138.451 142.423 136.31V42.1926Z" fill="#FFFFE8" fill-opacity="0.72"/>
<path d="M142.423 42.1926C142.423 40.0513 139.349 38.3154 135.558 38.3154C131.766 38.3154 128.692 40.0513 128.692 42.1926V136.31C128.692 138.451 131.766 140.187 135.558 140.187C139.349 140.187 142.423 138.451 142.423 136.31V42.1926Z" stroke="black" stroke-width="0.1"/>
<path d="M205 49.2664C205 46.3578 202.314 44 199 44C195.686 44 193 46.3578 193 49.2664V87.7336C193 90.6422 195.686 93 199 93C202.314 93 205 90.6422 205 87.7336V49.2664Z" fill="#FFFFE8" stroke="black" stroke-width="0.1"/>
<path d="M447.33 13H446.67C444.091 13 442 16.3594 442 20.5034V139.497C442 143.641 444.091 147 446.67 147H447.33C449.909 147 452 143.641 452 139.497V20.5034C452 16.3594 449.909 13 447.33 13Z" fill="#FDFF7D" stroke="black" stroke-width="0.1"/>
<path d="M276 30.1436C276 27.8551 274.433 26 272.5 26C270.567 26 269 27.8551 269 30.1436V83.8564C269 86.1449 270.567 88 272.5 88C274.433 88 276 86.1449 276 83.8564V30.1436Z" fill="#3BFA71" stroke="black" stroke-width="0.1"/>
<path d="M241.904 37.3279C241.904 36.1523 240.216 35.1992 238.134 35.1992C236.053 35.1992 234.365 36.1523 234.365 37.3279V84.6144C234.365 85.79 236.053 86.7431 238.134 86.7431C240.216 86.7431 241.904 85.79 241.904 84.6144V37.3279Z" fill="#E6E0F5" fill-opacity="0.86" stroke="black" stroke-width="0.1"/>
<path d="M116.442 43.1813C116.442 41.7118 114.333 40.5205 111.731 40.5205C109.128 40.5205 107.019 41.7118 107.019 43.1813V154.175C107.019 155.645 109.128 156.836 111.731 156.836C114.333 156.836 116.442 155.645 116.442 154.175V43.1813Z" fill="#E1D4FF" stroke="black" stroke-width="0.1"/>
<path d="M81 22.489C81 18.9052 78.3137 16 75 16C71.6863 16 69 18.9052 69 22.489V120.511C69 124.095 71.6863 127 75 127C78.3137 127 81 124.095 81 120.511V22.489Z" fill="#E1D4FF" stroke="black" stroke-width="0.1"/>
<path d="M63 87.3987C63 83.8648 60.0899 81 56.5 81C52.9101 81 50 83.8648 50 87.3987V168.601C50 172.135 52.9101 175 56.5 175C60.0899 175 63 172.135 63 168.601V87.3987Z" fill="#EDE5FF" stroke="black" stroke-width="0.1"/>
<path d="M527.558 73.5144C527.558 71.499 524.665 69.8652 521.096 69.8652C517.528 69.8652 514.635 71.499 514.635 73.5144V144.976C514.635 146.992 517.528 148.625 521.096 148.625C524.665 148.625 527.558 146.992 527.558 144.976V73.5144Z" fill="#E1D4FF" stroke="black" stroke-width="0.1"/>
<path d="M173 6.08696C173 2.72522 170.538 0 167.5 0C164.462 0 162 2.72522 162 6.08696V168.913C162 172.275 164.462 175 167.5 175C170.538 175 173 172.275 173 168.913V6.08696Z" fill="#FFFFE1" stroke="black" stroke-width="0.1"/>
<path d="M96 62.8099C96 60.7057 94.2091 59 92 59C89.7909 59 88 60.7057 88 62.8099V160.19C88 162.294 89.7909 164 92 164C94.2091 164 96 162.294 96 160.19V62.8099Z" fill="#7AFC9F" stroke="black" stroke-width="0.1"/>
<path d="M493.365 14.2162C493.365 12.1169 490.352 10.415 486.635 10.415C482.917 10.415 479.904 12.1169 479.904 14.2162V161.55C479.904 163.649 482.917 165.351 486.635 165.351C490.352 165.351 493.365 163.649 493.365 161.55V14.2162Z" fill="#7AFC9F" stroke="black" stroke-width="0.1"/>
<path d="M469.404 71.0814C469.404 68.9821 466.39 67.2803 462.673 67.2803C458.956 67.2803 455.942 68.9821 455.942 71.0814V175.842C455.942 177.941 458.956 179.643 462.673 179.643C466.39 179.643 469.404 177.941 469.404 175.842V71.0814Z" fill="#79FC61" stroke="black" stroke-width="0.1"/>
<path d="M268.962 74.1233C268.962 71.982 265.888 70.2461 262.096 70.2461C258.305 70.2461 255.231 71.982 255.231 74.1233V171.281C255.231 173.423 258.305 175.158 262.096 175.158C265.888 175.158 268.962 173.423 268.962 171.281V74.1233Z" fill="#FFFFEE"/>
<path d="M268.962 74.1233C268.962 71.982 265.888 70.2461 262.096 70.2461C258.305 70.2461 255.231 71.982 255.231 74.1233V171.281C255.231 173.423 258.305 175.158 262.096 175.158C265.888 175.158 268.962 173.423 268.962 171.281V74.1233Z" stroke="black" stroke-width="0.1"/>
<path d="M231.538 5.01754C231.538 2.24643 227.56 0 222.654 0C217.747 0 213.769 2.24643 213.769 5.01754V44.7018C213.769 47.4729 217.747 49.7193 222.654 49.7193C227.56 49.7193 231.538 47.4729 231.538 44.7018V5.01754Z" fill="#FFFFE8" fill-opacity="0.65"/>
<path d="M231.538 5.01754C231.538 2.24643 227.56 0 222.654 0C217.747 0 213.769 2.24643 213.769 5.01754V44.7018C213.769 47.4729 217.747 49.7193 222.654 49.7193C227.56 49.7193 231.538 47.4729 231.538 44.7018V5.01754Z" stroke="black" stroke-width="0.1"/>
<path d="M320.789 16.8012C320.789 14.7018 317.775 13 314.058 13C310.341 13 307.327 14.7018 307.327 16.8012V110.918C307.327 113.017 310.341 114.719 314.058 114.719C317.775 114.719 320.789 113.017 320.789 110.918V16.8012Z" fill="#FFFFEE" stroke="black" stroke-width="0.1"/>
<path d="M236.923 113.655C236.923 111.597 233.97 109.93 230.327 109.93C226.684 109.93 223.731 111.597 223.731 113.655V160.789C223.731 162.847 226.684 164.514 230.327 164.514C233.97 164.514 236.923 162.847 236.923 160.789V113.655Z" fill="#FFFFEE" stroke="black" stroke-width="0.1"/>
<path d="M347.307 86.9707C347.307 85.0393 344.535 83.4736 341.115 83.4736C337.695 83.4736 334.923 85.0393 334.923 86.9707V166.947C334.923 168.879 337.695 170.444 341.115 170.444C344.535 170.444 347.307 168.879 347.307 166.947V86.9707Z" fill="#FEFFC1" fill-opacity="0.61"/>
<path d="M347.307 86.9707C347.307 85.0393 344.535 83.4736 341.115 83.4736C337.695 83.4736 334.923 85.0393 334.923 86.9707V166.947C334.923 168.879 337.695 170.444 341.115 170.444C344.535 170.444 347.307 168.879 347.307 166.947V86.9707Z" stroke="black" stroke-width="0.1"/>
<path d="M377 78.6396C377 75.5249 374.09 73 370.5 73C366.91 73 364 75.5249 364 78.6396V174.36C364 177.475 366.91 180 370.5 180C374.09 180 377 177.475 377 174.36V78.6396Z" fill="#FBFF00" fill-opacity="0.3" stroke="black" stroke-width="0.1"/>
<path d="M289.827 88.0354C289.827 85.8941 286.753 84.1582 282.962 84.1582C279.17 84.1582 276.096 85.8941 276.096 88.0354V166.492C276.096 168.633 279.17 170.369 282.962 170.369C286.753 170.369 289.827 168.633 289.827 166.492V88.0354Z" fill="#FEFFB3" stroke="black" stroke-width="0.1"/>
<path d="M433 82.1331C433 79.2982 430.314 77 427 77C423.686 77 421 79.2982 421 82.1331V164.867C421 167.702 423.686 170 427 170C430.314 170 433 167.702 433 164.867V82.1331Z" fill="#FBFF00" fill-opacity="0.51" stroke="black" stroke-width="0.1"/>
<path d="M415 8.45882C415 5.444 411.866 3 408 3C404.134 3 401 5.444 401 8.45882V113.541C401 116.556 404.134 119 408 119C411.866 119 415 116.556 415 113.541V8.45882Z" fill="#FBFF00" fill-opacity="0.51" stroke="black" stroke-width="0.1"/>
<path d="M532.184 19H529.816C525.499 19 522 22.3666 522 26.5196V162.48C522 166.633 525.499 170 529.816 170H532.184C536.501 170 540 166.633 540 162.48V26.5196C540 22.3666 536.501 19 532.184 19Z" fill="#FDFF7D" stroke="black" stroke-width="0.1"/>
<path d="M480.712 21.3623C480.712 18.5912 476.734 16.3447 471.827 16.3447C466.92 16.3447 462.942 18.5912 462.942 21.3623V174.625C462.942 177.397 466.92 179.643 471.827 179.643C476.734 179.643 480.712 177.397 480.712 174.625V21.3623Z" fill="#FDFF7D" stroke="black" stroke-width="0.2"/>
<path d="M257.654 57.7017C257.654 56.736 256.268 55.9531 254.558 55.9531C252.848 55.9531 251.461 56.736 251.461 57.7017V104.988C251.461 105.954 252.848 106.737 254.558 106.737C256.268 106.737 257.654 105.954 257.654 104.988V57.7017Z" fill="#FEFFA6" stroke="black" stroke-width="0.1"/>
<path d="M305.307 70.1699C305.307 68.7843 303.319 67.6611 300.865 67.6611C298.412 67.6611 296.423 68.7843 296.423 70.1699V159.117C296.423 160.503 298.412 161.626 300.865 161.626C303.319 161.626 305.307 160.503 305.307 159.117V70.1699Z" fill="#FBFF00" fill-opacity="0.51"/>
<path d="M305.307 70.1699C305.307 68.7843 303.319 67.6611 300.865 67.6611C298.412 67.6611 296.423 68.7843 296.423 70.1699V159.117C296.423 160.503 298.412 161.626 300.865 161.626C303.319 161.626 305.307 160.503 305.307 159.117V70.1699Z" stroke="black" stroke-width="0.1"/>
<path d="M397.385 18.7773C397.385 17.3918 395.396 16.2686 392.942 16.2686C390.489 16.2686 388.5 17.3918 388.5 18.7773V130.228C388.5 131.613 390.489 132.736 392.942 132.736C395.396 132.736 397.385 131.613 397.385 130.228V18.7773Z" fill="#FBFF00" fill-opacity="0.51"/>
<path d="M397.385 18.7773C397.385 17.3918 395.396 16.2686 392.942 16.2686C390.489 16.2686 388.5 17.3918 388.5 18.7773V130.228C388.5 131.613 390.489 132.736 392.942 132.736C395.396 132.736 397.385 131.613 397.385 130.228V18.7773Z" stroke="black" stroke-width="0.1"/>
<path d="M237 14.5176C237 12.0226 235.209 10 233 10C230.791 10 229 12.0226 229 14.5176V105.482C229 107.977 230.791 110 233 110C235.209 110 237 107.977 237 105.482V14.5176Z" fill="#FDFF82"/>
<path d="M237 14.5176C237 12.0226 235.209 10 233 10C230.791 10 229 12.0226 229 14.5176V105.482C229 107.977 230.791 110 233 110C235.209 110 237 107.977 237 105.482V14.5176Z" stroke="black" stroke-width="0.1"/>
<path d="M135 25.2706C135 21.8074 132.09 19 128.5 19C124.91 19 122 21.8074 122 25.2706V129.729C122 133.193 124.91 136 128.5 136C132.09 136 135 133.193 135 129.729V25.2706Z" fill="#FCFF4F" stroke="black" stroke-width="0.1"/>
<path d="M368.712 83.4738C368.712 81.5844 365.999 80.0527 362.654 80.0527C359.308 80.0527 356.596 81.5844 356.596 83.4738V171.661C356.596 173.55 359.308 175.082 362.654 175.082C365.999 175.082 368.712 173.55 368.712 171.661V83.4738Z" fill="#00F947" fill-opacity="0.56" stroke="black" stroke-width="0.1"/>
<path d="M142.558 13.8361C142.558 11.9467 139.846 10.415 136.5 10.415C133.155 10.415 130.442 11.9467 130.442 13.8361V159.649C130.442 161.538 133.155 163.07 136.5 163.07C139.846 163.07 142.558 161.538 142.558 159.649V13.8361Z" fill="#70FC98" stroke="black" stroke-width="0.1"/>
<path d="M333.589 24H333.411C331.527 24 330 26.6255 330 29.8642V64.1358C330 67.3745 331.527 70 333.411 70H333.589C335.473 70 337 67.3745 337 64.1358V29.8642C337 26.6255 335.473 24 333.589 24Z" fill="#70FC98" stroke="black" stroke-width="0.1"/>
<path d="M44 35.6286C44 33.6246 41.9853 32 39.5 32C37.0147 32 35 33.6246 35 35.6286V142.371C35 144.375 37.0147 146 39.5 146C41.9853 146 44 144.375 44 142.371V35.6286Z" fill="#70FC98" stroke="black" stroke-width="0.1"/>
<path d="M396.443 122.854C396.443 120.964 393.73 119.433 390.385 119.433C387.039 119.433 384.327 120.964 384.327 122.854V166.947C384.327 168.837 387.039 170.368 390.385 170.368C393.73 170.368 396.443 168.837 396.443 166.947V122.854Z" fill="#70FC98" stroke="black" stroke-width="0.1"/>
<path d="M455.808 50.1752C455.808 48.9156 454 47.8945 451.769 47.8945C449.539 47.8945 447.731 48.9156 447.731 50.1752V79.0641C447.731 80.3237 449.539 81.3448 451.769 81.3448C454 81.3448 455.808 80.3237 455.808 79.0641V50.1752Z" fill="#00F947" fill-opacity="0.47"/>
<path d="M455.808 50.1752C455.808 48.9156 454 47.8945 451.769 47.8945C449.539 47.8945 447.731 48.9156 447.731 50.1752V79.0641C447.731 80.3237 449.539 81.3448 451.769 81.3448C454 81.3448 455.808 80.3237 455.808 79.0641V50.1752Z" stroke="black" stroke-width="0.1"/>
<path d="M332.904 100.503C332.904 98.6137 330.192 97.082 326.846 97.082C323.501 97.082 320.789 98.6137 320.789 100.503V160.562C320.789 162.451 323.501 163.983 326.846 163.983C330.192 163.983 332.904 162.451 332.904 160.562V100.503Z" fill="#C7FED6" stroke="black" stroke-width="0.1"/>
<path d="M290.904 114.644C290.904 113.846 289.759 113.199 288.346 113.199C286.934 113.199 285.789 113.846 285.789 114.644V168.924C285.789 169.722 286.934 170.369 288.346 170.369C289.759 170.369 290.904 169.722 290.904 168.924V114.644Z" fill="#00F947" fill-opacity="0.22" stroke="black" stroke-width="0.1"/>
<path d="M408.288 111.298C408.288 110.248 406.782 109.397 404.923 109.397C403.064 109.397 401.558 110.248 401.558 111.298V168.468C401.558 169.517 403.064 170.368 404.923 170.368C406.782 170.368 408.288 169.517 408.288 168.468V111.298Z" fill="#E6E0F5" fill-opacity="0.86" stroke="black" stroke-width="0.1"/>
<path d="M149 72.0049C149 69.7931 146.538 68 143.5 68C140.462 68 138 69.7931 138 72.0049V170.995C138 173.207 140.462 175 143.5 175C146.538 175 149 173.207 149 170.995V72.0049Z" fill="#E9E4F6"/>
<path d="M149.154 71.538C149.154 69.3127 145.96 67.5088 142.019 67.5088C138.079 67.5088 134.885 69.3127 134.885 71.538V171.129C134.885 173.354 138.079 175.158 142.019 175.158C145.96 175.158 149.154 173.354 149.154 171.129V71.538Z" stroke="black" stroke-width="0.1"/>
<path d="M187.384 82.8652C187.384 81.1857 184.974 79.8242 182 79.8242C179.026 79.8242 176.615 81.1857 176.615 82.8652V167.403C176.615 169.083 179.026 170.444 182 170.444C184.974 170.444 187.384 169.083 187.384 167.403V82.8652Z" fill="#E6E0F5" fill-opacity="0.86"/>
<path d="M187.384 82.8652C187.384 81.1857 184.974 79.8242 182 79.8242C179.026 79.8242 176.615 81.1857 176.615 82.8652V167.403C176.615 169.083 179.026 170.444 182 170.444C184.974 170.444 187.384 169.083 187.384 167.403V82.8652Z" stroke="black" stroke-width="0.1"/>
<path d="M163.019 64.0873C163.019 63.0796 161.573 62.2627 159.788 62.2627C158.004 62.2627 156.558 63.0796 156.558 64.0873V168.695C156.558 169.703 158.004 170.52 159.788 170.52C161.573 170.52 163.019 169.703 163.019 168.695V64.0873Z" fill="#D3C1FF" stroke="black" stroke-width="0.1"/>
<path d="M217.269 114.568C217.269 111.335 212.629 108.714 206.904 108.714C201.179 108.714 196.539 111.335 196.539 114.568V165.199C196.539 168.432 201.179 171.053 206.904 171.053C212.629 171.053 217.269 168.432 217.269 165.199V114.568Z" stroke="black" stroke-width="0.1"/>
<path d="M424 27.6745C424 25.6451 421.985 24 419.5 24C417.015 24 415 25.6451 415 27.6745V131.326C415 133.355 417.015 135 419.5 135C421.985 135 424 133.355 424 131.326V27.6745Z" fill="#E9E4E4" stroke="black" stroke-width="0.2"/>
<path d="M297.634 62.5677C297.634 61.56 296.188 60.7432 294.404 60.7432C292.619 60.7432 291.173 61.56 291.173 62.5677V91.0005C291.173 92.0082 292.619 92.825 294.404 92.825C296.188 92.825 297.634 92.0082 297.634 91.0005V62.5677Z" fill="#E5DBFF" stroke="black" stroke-width="0.1"/>
<path d="M65.8242 79.332C66.8138 79.3581 67.7253 79.5534 68.5586 79.918C69.418 80.2956 70.1341 80.7969 70.707 81.4219C71.2799 82.0469 71.7292 82.7565 72.0547 83.5508C72.3932 84.3581 72.569 85.1654 72.582 85.9727C72.582 87.7956 72.0221 89.306 70.9023 90.5039H75.9609C77.1589 90.5039 78.2786 90.7904 79.3203 91.3633C80.349 91.9232 81.1953 92.7109 81.8594 93.7266C82.4844 94.7422 82.7969 95.849 82.7969 97.0469C82.7969 98.0365 82.6146 98.9609 82.25 99.8203C81.8854 100.693 81.4036 101.428 80.8047 102.027C80.1797 102.652 79.4635 103.128 78.6562 103.453C77.8359 103.805 76.9766 103.98 76.0781 103.98H53.0703L53.0117 79.332H65.8242ZM65.0039 90.5039C65.3815 90.5039 65.7526 90.4583 66.1172 90.3672C66.5078 90.2891 66.9375 90.1393 67.4062 89.918C67.901 89.6966 68.3112 89.4297 68.6367 89.1172C69.0013 88.8047 69.2943 88.3815 69.5156 87.8477C69.737 87.3398 69.8477 86.793 69.8477 86.207C69.8477 85.3607 69.6263 84.5859 69.1836 83.8828C68.7799 83.2578 68.2721 82.7891 67.6602 82.4766C67.0612 82.1641 66.4492 82.0078 65.8242 82.0078H55.6289L55.6484 90.5039H65.0039ZM76.0781 101.363C76.5469 101.363 77.0091 101.266 77.4648 101.07C77.9336 100.875 78.3698 100.602 78.7734 100.25C79.138 99.9375 79.457 99.4818 79.7305 98.8828C79.9779 98.3359 80.1016 97.724 80.1016 97.0469C80.1016 96.3438 79.8932 95.6732 79.4766 95.0352C79.0599 94.4232 78.5391 93.9544 77.9141 93.6289C77.2891 93.2904 76.638 93.1211 75.9609 93.1211H55.668L55.6875 101.363H76.0781ZM98.6562 104.176C96.8854 104.176 95.2188 103.876 93.6562 103.277C92.0807 102.678 90.7005 101.845 89.5156 100.777C88.3568 99.7357 87.4128 98.4466 86.6836 96.9102C85.9544 95.3867 85.5638 93.7396 85.5117 91.9688V91.6758C85.5117 90.8164 85.6159 89.9701 85.8242 89.1367C86.0586 88.2253 86.3646 87.3984 86.7422 86.6562C87.1589 85.8099 87.6341 85.0352 88.168 84.332C88.7148 83.5898 89.3594 82.9128 90.1016 82.3008C90.8438 81.6888 91.6445 81.1615 92.5039 80.7188C93.3372 80.276 94.2682 79.9245 95.2969 79.6641C96.3125 79.4036 97.3411 79.2734 98.3828 79.2734H98.6562C100.401 79.2734 102.061 79.5859 103.637 80.2109C105.212 80.8099 106.586 81.6497 107.758 82.7305C108.917 83.8112 109.854 85.1068 110.57 86.6172C111.299 88.1406 111.703 89.7617 111.781 91.4805H111.801V91.9688H111.781C111.703 93.6875 111.299 95.3151 110.57 96.8516C109.854 98.349 108.917 99.638 107.758 100.719C106.599 101.786 105.225 102.633 103.637 103.258C102.035 103.87 100.375 104.176 98.6562 104.176ZM88.2266 91.7344C88.2656 93.1927 88.5586 94.5339 89.1055 95.7578C89.6784 97.0078 90.4206 98.0495 91.332 98.8828C92.2695 99.7161 93.3633 100.38 94.6133 100.875C95.8893 101.344 97.2305 101.578 98.6367 101.578C100.056 101.578 101.397 101.344 102.66 100.875C103.936 100.406 105.036 99.7552 105.961 98.9219C106.885 98.1146 107.641 97.0729 108.227 95.7969C108.812 94.5208 109.112 93.1667 109.125 91.7344C109.112 90.2891 108.812 88.9349 108.227 87.6719C107.654 86.4089 106.898 85.3672 105.961 84.5469C105.01 83.6875 103.91 83.0299 102.66 82.5742C101.397 82.1055 100.056 81.8711 98.6367 81.8711C97.2044 81.8711 95.8633 82.112 94.6133 82.5938C93.3763 83.0625 92.2826 83.7201 91.332 84.5664C90.4206 85.3997 89.6784 86.4414 89.1055 87.6914C88.5586 88.9154 88.2656 90.263 88.2266 91.7344ZM128.07 104.176C126.299 104.176 124.633 103.876 123.07 103.277C121.495 102.678 120.115 101.845 118.93 100.777C117.771 99.7357 116.827 98.4466 116.098 96.9102C115.368 95.3867 114.978 93.7396 114.926 91.9688V91.6758C114.926 90.8164 115.03 89.9701 115.238 89.1367C115.473 88.2253 115.779 87.3984 116.156 86.6562C116.573 85.8099 117.048 85.0352 117.582 84.332C118.129 83.5898 118.773 82.9128 119.516 82.3008C120.258 81.6888 121.059 81.1615 121.918 80.7188C122.751 80.276 123.682 79.9245 124.711 79.6641C125.727 79.4036 126.755 79.2734 127.797 79.2734H128.07C129.815 79.2734 131.475 79.5859 133.051 80.2109C134.626 80.8099 136 81.6497 137.172 82.7305C138.331 83.8112 139.268 85.1068 139.984 86.6172C140.714 88.1406 141.117 89.7617 141.195 91.4805H141.215V91.9688H141.195C141.117 93.6875 140.714 95.3151 139.984 96.8516C139.268 98.349 138.331 99.638 137.172 100.719C136.013 101.786 134.639 102.633 133.051 103.258C131.449 103.87 129.789 104.176 128.07 104.176ZM117.641 91.7344C117.68 93.1927 117.973 94.5339 118.52 95.7578C119.092 97.0078 119.835 98.0495 120.746 98.8828C121.684 99.7161 122.777 100.38 124.027 100.875C125.303 101.344 126.645 101.578 128.051 101.578C129.47 101.578 130.811 101.344 132.074 100.875C133.35 100.406 134.451 99.7552 135.375 98.9219C136.299 98.1146 137.055 97.0729 137.641 95.7969C138.227 94.5208 138.526 93.1667 138.539 91.7344C138.526 90.2891 138.227 88.9349 137.641 87.6719C137.068 86.4089 136.312 85.3672 135.375 84.5469C134.424 83.6875 133.324 83.0299 132.074 82.5742C130.811 82.1055 129.47 81.8711 128.051 81.8711C126.618 81.8711 125.277 82.112 124.027 82.5938C122.79 83.0625 121.697 83.7201 120.746 84.5664C119.835 85.3997 119.092 86.4414 118.52 87.6914C117.973 88.9154 117.68 90.263 117.641 91.7344ZM149.828 79.332L149.809 90.4062L164.73 79.332H169.145L153.93 90.5234C154.62 90.5755 155.277 90.7448 155.902 91.0312C156.723 91.3828 157.445 91.8711 158.07 92.4961C158.331 92.7565 158.611 93.1146 158.91 93.5703C159.21 94.013 159.424 94.3776 159.555 94.6641C159.88 95.4062 160.049 96.1745 160.062 96.9688C160.089 97.099 160.102 97.2031 160.102 97.2812H160.082C160.108 97.8281 160.225 98.3359 160.434 98.8047C160.642 99.2995 160.935 99.7357 161.312 100.113C161.69 100.491 162.126 100.784 162.621 100.992C163.181 101.266 163.767 101.409 164.379 101.422H168.051V104H164.008C163.018 103.922 162.217 103.746 161.605 103.473C160.785 103.121 160.062 102.633 159.438 102.008C158.773 101.344 158.279 100.621 157.953 99.8398C157.615 99.0195 157.432 98.1667 157.406 97.2812C157.406 97.125 157.4 97.0208 157.387 96.9688C157.361 96.513 157.257 96.0898 157.074 95.6992C156.866 95.2044 156.573 94.7682 156.195 94.3906C155.818 94.013 155.382 93.7201 154.887 93.5117C154.418 93.2904 154.053 93.1602 153.793 93.1211V93.1406H149.789L149.77 104H147.152L147.211 79.332H149.828ZM182.465 104.039C181.332 104.039 180.277 103.961 179.301 103.805C178.311 103.648 177.478 103.453 176.801 103.219C176.085 102.958 175.46 102.659 174.926 102.32C174.418 102.021 173.962 101.682 173.559 101.305C173.233 100.992 172.921 100.615 172.621 100.172C172.374 99.7552 172.178 99.4036 172.035 99.1172C171.918 98.8568 171.814 98.5443 171.723 98.1797C171.658 97.9193 171.612 97.6849 171.586 97.4766L171.566 97.0859H174.477C174.594 97.8802 174.906 98.5573 175.414 99.1172C175.948 99.7031 176.599 100.152 177.367 100.465C178.174 100.79 178.988 101.018 179.809 101.148C180.681 101.279 181.482 101.344 182.211 101.344C183.526 101.344 184.717 101.201 185.785 100.914C186.814 100.641 187.693 100.217 188.422 99.6445C189.151 99.0846 189.607 98.4141 189.789 97.6328C189.854 97.2812 189.887 96.9818 189.887 96.7344C189.887 96.3177 189.815 95.9271 189.672 95.5625C189.451 94.9766 189.099 94.5143 188.617 94.1758C188.148 93.8372 187.543 93.5833 186.801 93.4141C186.124 93.2318 185.434 93.1081 184.73 93.043C184.158 92.9909 183.448 92.9648 182.602 92.9648C180.857 92.9648 179.327 92.8411 178.012 92.5938C176.671 92.3333 175.622 92.0208 174.867 91.6562C174.112 91.2917 173.474 90.8359 172.953 90.2891C172.445 89.7422 172.094 89.2474 171.898 88.8047C171.716 88.375 171.592 87.8932 171.527 87.3594C171.488 86.8776 171.482 86.5065 171.508 86.2461C171.521 86.1029 171.553 85.901 171.605 85.6406L171.625 85.6016C171.807 84.5729 172.211 83.668 172.836 82.8867C173.474 82.0924 174.281 81.4349 175.258 80.9141C176.234 80.4062 177.315 80.0156 178.5 79.7422C179.724 79.4818 180.98 79.3516 182.27 79.3516C184.34 79.3516 186.215 79.7292 187.895 80.4844C188.78 80.849 189.542 81.3177 190.18 81.8906C190.844 82.4375 191.378 83.1081 191.781 83.9023C192.159 84.6836 192.361 85.556 192.387 86.5195H189.613C189.496 85.8034 189.262 85.1719 188.91 84.625C188.559 84.0781 188.148 83.6484 187.68 83.3359C187.211 83.0234 186.651 82.7695 186 82.5742C185.388 82.3919 184.783 82.2617 184.184 82.1836C183.598 82.1055 182.934 82.0664 182.191 82.0664C179.665 82.0664 177.712 82.444 176.332 83.1992C175.85 83.4727 175.421 83.8242 175.043 84.2539C174.678 84.6966 174.451 85.1849 174.359 85.7188C174.294 86.0703 174.262 86.3568 174.262 86.5781C174.262 87.737 174.828 88.6224 175.961 89.2344C177.367 89.9896 179.568 90.3802 182.562 90.4062C183.852 90.4323 184.991 90.5104 185.98 90.6406C186.983 90.7708 187.934 91.0182 188.832 91.3828C189.704 91.7083 190.427 92.151 191 92.7109C191.56 93.2448 191.977 93.9479 192.25 94.8203C192.458 95.4323 192.562 96.1289 192.562 96.9102C192.562 97.1055 192.549 97.3984 192.523 97.7891C192.445 98.5964 192.224 99.3125 191.859 99.9375C191.508 100.589 191.052 101.135 190.492 101.578C189.919 102.034 189.307 102.424 188.656 102.75C187.992 103.089 187.283 103.342 186.527 103.512C185.772 103.694 185.062 103.831 184.398 103.922C183.734 104 183.09 104.039 182.465 104.039ZM200.004 79.332L200.023 90.2305L219.594 90.1719L219.574 79.332H222.191L222.25 104H219.633L219.613 92.7891L200.043 92.8477L200.062 104H197.445L197.387 79.332H200.004ZM252.797 79.3516V81.9688H230.492L230.512 90.2305L249.125 90.1719V92.7891L230.531 92.8477L230.551 101.383H252.836V104H227.934L227.875 79.3516H252.797ZM257.367 103.961L257.426 79.3516H260.043L259.984 101.383H282.055V104H257.387V103.961H257.367ZM309.457 79.3516V81.9688H287.152L287.172 90.2305L305.824 90.1719V92.7891L287.191 92.8477L287.211 104H284.594L284.535 79.3516H309.457ZM349.203 79.3516V81.9688H326.898L326.918 90.2305L345.531 90.1719V92.7891L326.938 92.8477L326.957 101.383H349.242V104H324.34L324.281 79.3516H349.203ZM369.867 79.3516C372.081 79.3516 374.027 79.638 375.707 80.2109C377.374 80.7969 378.721 81.6367 379.75 82.7305C380.779 83.8112 381.547 85.1003 382.055 86.5977C382.562 88.082 382.816 89.7682 382.816 91.6562C382.816 93.6745 382.51 95.4844 381.898 97.0859C381.286 98.6615 380.421 99.9505 379.301 100.953C378.155 101.969 376.801 102.724 375.238 103.219C373.676 103.74 371.905 104 369.926 104H353.93L353.871 79.3516H369.867ZM369.887 101.383C371.397 101.383 372.758 101.161 373.969 100.719C375.18 100.302 376.247 99.6771 377.172 98.8438C378.07 98.0234 378.773 96.9883 379.281 95.7383C379.776 94.4753 380.023 93.0625 380.023 91.5C380.023 88.5182 379.151 86.1745 377.406 84.4688C375.661 82.763 373.148 81.9102 369.867 81.9102H356.488L356.547 101.441L369.887 101.383ZM391.938 79.3516L391.996 104H389.262L389.32 79.3516H391.938ZM397.055 81.9297V79.332H421.938V81.9297H410.648L410.59 104H407.973L408.031 81.9297H397.055ZM430.57 79.3516L430.629 104H427.895L427.953 79.3516H430.57ZM448.812 104.176C447.042 104.176 445.375 103.876 443.812 103.277C442.237 102.678 440.857 101.845 439.672 100.777C438.513 99.7357 437.569 98.4466 436.84 96.9102C436.111 95.3867 435.72 93.7396 435.668 91.9688V91.6758C435.668 90.8164 435.772 89.9701 435.98 89.1367C436.215 88.2253 436.521 87.3984 436.898 86.6562C437.315 85.8099 437.79 85.0352 438.324 84.332C438.871 83.5898 439.516 82.9128 440.258 82.3008C441 81.6888 441.801 81.1615 442.66 80.7188C443.493 80.276 444.424 79.9245 445.453 79.6641C446.469 79.4036 447.497 79.2734 448.539 79.2734H448.812C450.557 79.2734 452.217 79.5859 453.793 80.2109C455.368 80.8099 456.742 81.6497 457.914 82.7305C459.073 83.8112 460.01 85.1068 460.727 86.6172C461.456 88.1406 461.859 89.7617 461.938 91.4805H461.957V91.9688H461.938C461.859 93.6875 461.456 95.3151 460.727 96.8516C460.01 98.349 459.073 99.638 457.914 100.719C456.755 101.786 455.382 102.633 453.793 103.258C452.191 103.87 450.531 104.176 448.812 104.176ZM438.383 91.7344C438.422 93.1927 438.715 94.5339 439.262 95.7578C439.835 97.0078 440.577 98.0495 441.488 98.8828C442.426 99.7161 443.52 100.38 444.77 100.875C446.046 101.344 447.387 101.578 448.793 101.578C450.212 101.578 451.553 101.344 452.816 100.875C454.092 100.406 455.193 99.7552 456.117 98.9219C457.042 98.1146 457.797 97.0729 458.383 95.7969C458.969 94.5208 459.268 93.1667 459.281 91.7344C459.268 90.2891 458.969 88.9349 458.383 87.6719C457.81 86.4089 457.055 85.3672 456.117 84.5469C455.167 83.6875 454.066 83.0299 452.816 82.5742C451.553 82.1055 450.212 81.8711 448.793 81.8711C447.361 81.8711 446.02 82.112 444.77 82.5938C443.533 83.0625 442.439 83.7201 441.488 84.5664C440.577 85.3997 439.835 86.4414 439.262 87.6914C438.715 88.9154 438.422 90.263 438.383 91.7344ZM469.203 79.3516L487.934 100.113L487.992 79.3516H490.609L490.551 104H487.934L469.184 83.2773L469.145 104H466.527L466.586 79.3516H469.203ZM506.645 104.039C505.512 104.039 504.457 103.961 503.48 103.805C502.491 103.648 501.658 103.453 500.98 103.219C500.264 102.958 499.639 102.659 499.105 102.32C498.598 102.021 498.142 101.682 497.738 101.305C497.413 100.992 497.1 100.615 496.801 100.172C496.553 99.7552 496.358 99.4036 496.215 99.1172C496.098 98.8568 495.993 98.5443 495.902 98.1797C495.837 97.9193 495.792 97.6849 495.766 97.4766L495.746 97.0859H498.656C498.773 97.8802 499.086 98.5573 499.594 99.1172C500.128 99.7031 500.779 100.152 501.547 100.465C502.354 100.79 503.168 101.018 503.988 101.148C504.861 101.279 505.661 101.344 506.391 101.344C507.706 101.344 508.897 101.201 509.965 100.914C510.993 100.641 511.872 100.217 512.602 99.6445C513.331 99.0846 513.786 98.4141 513.969 97.6328C514.034 97.2812 514.066 96.9818 514.066 96.7344C514.066 96.3177 513.995 95.9271 513.852 95.5625C513.63 94.9766 513.279 94.5143 512.797 94.1758C512.328 93.8372 511.723 93.5833 510.98 93.4141C510.303 93.2318 509.613 93.1081 508.91 93.043C508.337 92.9909 507.628 92.9648 506.781 92.9648C505.036 92.9648 503.507 92.8411 502.191 92.5938C500.85 92.3333 499.802 92.0208 499.047 91.6562C498.292 91.2917 497.654 90.8359 497.133 90.2891C496.625 89.7422 496.273 89.2474 496.078 88.8047C495.896 88.375 495.772 87.8932 495.707 87.3594C495.668 86.8776 495.661 86.5065 495.688 86.2461C495.701 86.1029 495.733 85.901 495.785 85.6406L495.805 85.6016C495.987 84.5729 496.391 83.668 497.016 82.8867C497.654 82.0924 498.461 81.4349 499.438 80.9141C500.414 80.4062 501.495 80.0156 502.68 79.7422C503.904 79.4818 505.16 79.3516 506.449 79.3516C508.52 79.3516 510.395 79.7292 512.074 80.4844C512.96 80.849 513.721 81.3177 514.359 81.8906C515.023 82.4375 515.557 83.1081 515.961 83.9023C516.339 84.6836 516.54 85.556 516.566 86.5195H513.793C513.676 85.8034 513.441 85.1719 513.09 84.625C512.738 84.0781 512.328 83.6484 511.859 83.3359C511.391 83.0234 510.831 82.7695 510.18 82.5742C509.568 82.3919 508.962 82.2617 508.363 82.1836C507.777 82.1055 507.113 82.0664 506.371 82.0664C503.845 82.0664 501.892 82.444 500.512 83.1992C500.03 83.4727 499.6 83.8242 499.223 84.2539C498.858 84.6966 498.63 85.1849 498.539 85.7188C498.474 86.0703 498.441 86.3568 498.441 86.5781C498.441 87.737 499.008 88.6224 500.141 89.2344C501.547 89.9896 503.747 90.3802 506.742 90.4062C508.031 90.4323 509.171 90.5104 510.16 90.6406C511.163 90.7708 512.113 91.0182 513.012 91.3828C513.884 91.7083 514.607 92.151 515.18 92.7109C515.74 93.2448 516.156 93.9479 516.43 94.8203C516.638 95.4323 516.742 96.1289 516.742 96.9102C516.742 97.1055 516.729 97.3984 516.703 97.7891C516.625 98.5964 516.404 99.3125 516.039 99.9375C515.688 100.589 515.232 101.135 514.672 101.578C514.099 102.034 513.487 102.424 512.836 102.75C512.172 103.089 511.462 103.342 510.707 103.512C509.952 103.694 509.242 103.831 508.578 103.922C507.914 104 507.27 104.039 506.645 104.039Z" fill="black"/>
</g>
<defs>
<clipPath id="clip0_329_418">
<rect width="553" height="182" fill="white"/>
</clipPath>
</defs>
</svg>
